<mxfile host="65bd71144e">
    <diagram name="Страница — 1" id="fuRrJp9T_4Lf_aJsH5pe">
        <mxGraphModel dx="1880" dy="687" grid="1" gridSize="10" guides="1" tooltips="1" connect="1" arrows="1" fold="1" page="1" pageScale="1" pageWidth="827" pageHeight="1169" math="0" shadow="0">
            <root>
                <mxCell id="0"/>
                <mxCell id="1" parent="0"/>
                <mxCell id="bYO1vB-1LLN_wNlQMvkM-28" style="edgeStyle=orthogonalEdgeStyle;rounded=0;orthogonalLoop=1;jettySize=auto;html=1;exitX=0;exitY=1;exitDx=0;exitDy=0;entryX=0.5;entryY=0;entryDx=0;entryDy=0;" parent="1" source="bYO1vB-1LLN_wNlQMvkM-15" target="bYO1vB-1LLN_wNlQMvkM-153" edge="1">
                    <mxGeometry relative="1" as="geometry"/>
                </mxCell>
                <mxCell id="bYO1vB-1LLN_wNlQMvkM-30" value="Для себя" style="edgeLabel;html=1;align=center;verticalAlign=middle;resizable=0;points=[];" parent="bYO1vB-1LLN_wNlQMvkM-28" vertex="1" connectable="0">
                    <mxGeometry x="0.081" relative="1" as="geometry">
                        <mxPoint y="28" as="offset"/>
                    </mxGeometry>
                </mxCell>
                <mxCell id="bYO1vB-1LLN_wNlQMvkM-29" style="edgeStyle=orthogonalEdgeStyle;rounded=0;orthogonalLoop=1;jettySize=auto;html=1;exitX=1;exitY=1;exitDx=0;exitDy=0;entryX=0;entryY=0.5;entryDx=0;entryDy=0;" parent="1" source="bYO1vB-1LLN_wNlQMvkM-15" target="bYO1vB-1LLN_wNlQMvkM-155" edge="1">
                    <mxGeometry relative="1" as="geometry">
                        <mxPoint x="820" y="190" as="targetPoint"/>
                    </mxGeometry>
                </mxCell>
                <mxCell id="bYO1vB-1LLN_wNlQMvkM-31" value="Подарок" style="edgeLabel;html=1;align=center;verticalAlign=middle;resizable=0;points=[];" parent="bYO1vB-1LLN_wNlQMvkM-29" vertex="1" connectable="0">
                    <mxGeometry x="-0.2357" y="3" relative="1" as="geometry">
                        <mxPoint x="26" y="-9" as="offset"/>
                    </mxGeometry>
                </mxCell>
                <mxCell id="bYO1vB-1LLN_wNlQMvkM-171" style="edgeStyle=orthogonalEdgeStyle;rounded=0;orthogonalLoop=1;jettySize=auto;html=1;entryX=1;entryY=0.5;entryDx=0;entryDy=0;" parent="1" source="bYO1vB-1LLN_wNlQMvkM-15" target="bYO1vB-1LLN_wNlQMvkM-172" edge="1">
                    <mxGeometry relative="1" as="geometry">
                        <mxPoint x="80" y="255" as="targetPoint"/>
                        <Array as="points">
                            <mxPoint x="80" y="255"/>
                        </Array>
                    </mxGeometry>
                </mxCell>
                <mxCell id="bYO1vB-1LLN_wNlQMvkM-15" value="Для чего вам духи?" style="rhombus;whiteSpace=wrap;html=1;" parent="1" vertex="1">
                    <mxGeometry x="358" y="220" width="110" height="70" as="geometry"/>
                </mxCell>
                <mxCell id="bYO1vB-1LLN_wNlQMvkM-49" style="edgeStyle=orthogonalEdgeStyle;rounded=0;orthogonalLoop=1;jettySize=auto;html=1;" parent="1" source="bYO1vB-1LLN_wNlQMvkM-21" edge="1">
                    <mxGeometry relative="1" as="geometry">
                        <mxPoint x="270" y="580" as="targetPoint"/>
                    </mxGeometry>
                </mxCell>
                <mxCell id="bYO1vB-1LLN_wNlQMvkM-50" value="Мужчина/Женщина" style="edgeLabel;html=1;align=center;verticalAlign=middle;resizable=0;points=[];" parent="bYO1vB-1LLN_wNlQMvkM-49" vertex="1" connectable="0">
                    <mxGeometry x="-0.3607" y="2" relative="1" as="geometry">
                        <mxPoint as="offset"/>
                    </mxGeometry>
                </mxCell>
                <mxCell id="bYO1vB-1LLN_wNlQMvkM-21" value="Ваш пол?" style="rhombus;whiteSpace=wrap;html=1;" parent="1" vertex="1">
                    <mxGeometry x="237.25" y="440" width="80" height="60" as="geometry"/>
                </mxCell>
                <mxCell id="2" style="edgeStyle=orthogonalEdgeStyle;html=1;elbow=vertical;entryX=0.5;entryY=0;entryDx=0;entryDy=0;" parent="1" source="bYO1vB-1LLN_wNlQMvkM-22" target="3" edge="1">
                    <mxGeometry relative="1" as="geometry">
                        <mxPoint x="730" y="670" as="targetPoint"/>
                    </mxGeometry>
                </mxCell>
                <mxCell id="5" value="Парень" style="edgeLabel;html=1;align=center;verticalAlign=middle;resizable=0;points=[];" parent="2" vertex="1" connectable="0">
                    <mxGeometry x="0.4958" y="1" relative="1" as="geometry">
                        <mxPoint as="offset"/>
                    </mxGeometry>
                </mxCell>
                <mxCell id="bYO1vB-1LLN_wNlQMvkM-22" value="Кому вы дарите духи?" style="rhombus;whiteSpace=wrap;html=1;" parent="1" vertex="1">
                    <mxGeometry x="910" y="390" width="110" height="70" as="geometry"/>
                </mxCell>
                <mxCell id="bYO1vB-1LLN_wNlQMvkM-37" style="edgeStyle=orthogonalEdgeStyle;rounded=0;orthogonalLoop=1;jettySize=auto;html=1;entryX=0.5;entryY=0;entryDx=0;entryDy=0;" parent="1" source="bYO1vB-1LLN_wNlQMvkM-36" target="bYO1vB-1LLN_wNlQMvkM-121" edge="1">
                    <mxGeometry relative="1" as="geometry"/>
                </mxCell>
                <mxCell id="bYO1vB-1LLN_wNlQMvkM-38" value="Начать" style="edgeLabel;html=1;align=center;verticalAlign=middle;resizable=0;points=[];" parent="bYO1vB-1LLN_wNlQMvkM-37" vertex="1" connectable="0">
                    <mxGeometry x="0.307" relative="1" as="geometry">
                        <mxPoint x="-23" as="offset"/>
                    </mxGeometry>
                </mxCell>
                <mxCell id="bYO1vB-1LLN_wNlQMvkM-36" value="Приветствующее окно" style="rounded=0;whiteSpace=wrap;html=1;" parent="1" vertex="1">
                    <mxGeometry x="354" y="10" width="120" height="60" as="geometry"/>
                </mxCell>
                <mxCell id="bYO1vB-1LLN_wNlQMvkM-43" style="edgeStyle=orthogonalEdgeStyle;rounded=0;orthogonalLoop=1;jettySize=auto;html=1;exitX=0.5;exitY=1;exitDx=0;exitDy=0;" parent="1" edge="1">
                    <mxGeometry relative="1" as="geometry">
                        <mxPoint x="650" y="530" as="sourcePoint"/>
                        <mxPoint x="650" y="530" as="targetPoint"/>
                    </mxGeometry>
                </mxCell>
                <mxCell id="bYO1vB-1LLN_wNlQMvkM-52" style="edgeStyle=orthogonalEdgeStyle;rounded=0;orthogonalLoop=1;jettySize=auto;html=1;entryX=0.5;entryY=0;entryDx=0;entryDy=0;exitX=0;exitY=0;exitDx=0;exitDy=0;" parent="1" source="bYO1vB-1LLN_wNlQMvkM-22" target="bYO1vB-1LLN_wNlQMvkM-95" edge="1">
                    <mxGeometry relative="1" as="geometry">
                        <mxPoint x="434.5" y="711" as="targetPoint"/>
                        <mxPoint x="547" y="505" as="sourcePoint"/>
                        <Array as="points">
                            <mxPoint x="593" y="428"/>
                        </Array>
                    </mxGeometry>
                </mxCell>
                <mxCell id="bYO1vB-1LLN_wNlQMvkM-56" value="Девушка" style="edgeLabel;html=1;align=center;verticalAlign=middle;resizable=0;points=[];" parent="bYO1vB-1LLN_wNlQMvkM-52" vertex="1" connectable="0">
                    <mxGeometry x="0.1672" relative="1" as="geometry">
                        <mxPoint y="112" as="offset"/>
                    </mxGeometry>
                </mxCell>
                <mxCell id="bYO1vB-1LLN_wNlQMvkM-54" style="edgeStyle=orthogonalEdgeStyle;rounded=0;orthogonalLoop=1;jettySize=auto;html=1;entryX=0.5;entryY=0;entryDx=0;entryDy=0;exitX=1;exitY=0.5;exitDx=0;exitDy=0;" parent="1" source="bYO1vB-1LLN_wNlQMvkM-22" target="bYO1vB-1LLN_wNlQMvkM-96" edge="1">
                    <mxGeometry relative="1" as="geometry">
                        <mxPoint x="555" y="700" as="targetPoint"/>
                        <mxPoint x="1260" y="530" as="sourcePoint"/>
                        <Array as="points">
                            <mxPoint x="1240" y="445"/>
                        </Array>
                    </mxGeometry>
                </mxCell>
                <mxCell id="bYO1vB-1LLN_wNlQMvkM-57" value="Друг" style="edgeLabel;html=1;align=center;verticalAlign=middle;resizable=0;points=[];" parent="bYO1vB-1LLN_wNlQMvkM-54" vertex="1" connectable="0">
                    <mxGeometry x="-0.2621" relative="1" as="geometry">
                        <mxPoint x="50" y="135" as="offset"/>
                    </mxGeometry>
                </mxCell>
                <mxCell id="bYO1vB-1LLN_wNlQMvkM-55" style="edgeStyle=orthogonalEdgeStyle;rounded=0;orthogonalLoop=1;jettySize=auto;html=1;" parent="1" source="bYO1vB-1LLN_wNlQMvkM-22" target="bYO1vB-1LLN_wNlQMvkM-97" edge="1">
                    <mxGeometry relative="1" as="geometry">
                        <mxPoint x="660" y="700" as="targetPoint"/>
                        <mxPoint x="607" y="517.5" as="sourcePoint"/>
                    </mxGeometry>
                </mxCell>
                <mxCell id="bYO1vB-1LLN_wNlQMvkM-58" value="Родственник" style="edgeLabel;html=1;align=center;verticalAlign=middle;resizable=0;points=[];" parent="bYO1vB-1LLN_wNlQMvkM-55" vertex="1" connectable="0">
                    <mxGeometry x="0.3919" relative="1" as="geometry">
                        <mxPoint y="-28" as="offset"/>
                    </mxGeometry>
                </mxCell>
                <mxCell id="bYO1vB-1LLN_wNlQMvkM-68" style="edgeStyle=orthogonalEdgeStyle;rounded=0;orthogonalLoop=1;jettySize=auto;html=1;entryX=0;entryY=0.5;entryDx=0;entryDy=0;" parent="1" source="bYO1vB-1LLN_wNlQMvkM-67" target="bYO1vB-1LLN_wNlQMvkM-74" edge="1">
                    <mxGeometry relative="1" as="geometry">
                        <mxPoint x="180" y="710" as="targetPoint"/>
                        <Array as="points">
                            <mxPoint x="210" y="740"/>
                            <mxPoint x="230" y="740"/>
                        </Array>
                    </mxGeometry>
                </mxCell>
                <mxCell id="bYO1vB-1LLN_wNlQMvkM-71" value="Жирная" style="edgeLabel;html=1;align=center;verticalAlign=middle;resizable=0;points=[];" parent="bYO1vB-1LLN_wNlQMvkM-68" vertex="1" connectable="0">
                    <mxGeometry x="0.1968" y="2" relative="1" as="geometry">
                        <mxPoint as="offset"/>
                    </mxGeometry>
                </mxCell>
                <mxCell id="bYO1vB-1LLN_wNlQMvkM-69" style="edgeStyle=orthogonalEdgeStyle;rounded=0;orthogonalLoop=1;jettySize=auto;html=1;exitX=0.5;exitY=1;exitDx=0;exitDy=0;" parent="1" source="bYO1vB-1LLN_wNlQMvkM-67" edge="1">
                    <mxGeometry relative="1" as="geometry">
                        <mxPoint x="269.9310344827586" y="710" as="targetPoint"/>
                    </mxGeometry>
                </mxCell>
                <mxCell id="bYO1vB-1LLN_wNlQMvkM-72" value="Сухая" style="edgeLabel;html=1;align=center;verticalAlign=middle;resizable=0;points=[];" parent="bYO1vB-1LLN_wNlQMvkM-69" vertex="1" connectable="0">
                    <mxGeometry x="-0.3973" y="3" relative="1" as="geometry">
                        <mxPoint as="offset"/>
                    </mxGeometry>
                </mxCell>
                <mxCell id="bYO1vB-1LLN_wNlQMvkM-70" style="edgeStyle=orthogonalEdgeStyle;rounded=0;orthogonalLoop=1;jettySize=auto;html=1;entryX=1;entryY=0.5;entryDx=0;entryDy=0;" parent="1" source="bYO1vB-1LLN_wNlQMvkM-67" target="bYO1vB-1LLN_wNlQMvkM-74" edge="1">
                    <mxGeometry relative="1" as="geometry">
                        <mxPoint x="360" y="710" as="targetPoint"/>
                        <Array as="points">
                            <mxPoint x="358" y="615"/>
                            <mxPoint x="358" y="740"/>
                            <mxPoint x="310" y="740"/>
                        </Array>
                    </mxGeometry>
                </mxCell>
                <mxCell id="bYO1vB-1LLN_wNlQMvkM-73" value="Комбинированная" style="edgeLabel;html=1;align=center;verticalAlign=middle;resizable=0;points=[];" parent="bYO1vB-1LLN_wNlQMvkM-70" vertex="1" connectable="0">
                    <mxGeometry x="0.2491" y="1" relative="1" as="geometry">
                        <mxPoint as="offset"/>
                    </mxGeometry>
                </mxCell>
                <mxCell id="bYO1vB-1LLN_wNlQMvkM-67" value="Какой у вас тип кожи?" style="rhombus;whiteSpace=wrap;html=1;" parent="1" vertex="1">
                    <mxGeometry x="202.5" y="580" width="135" height="70" as="geometry"/>
                </mxCell>
                <mxCell id="bYO1vB-1LLN_wNlQMvkM-76" style="edgeStyle=orthogonalEdgeStyle;rounded=0;orthogonalLoop=1;jettySize=auto;html=1;entryX=0;entryY=0.5;entryDx=0;entryDy=0;" parent="1" source="bYO1vB-1LLN_wNlQMvkM-74" target="bYO1vB-1LLN_wNlQMvkM-83" edge="1">
                    <mxGeometry relative="1" as="geometry">
                        <mxPoint x="150" y="890" as="targetPoint"/>
                        <Array as="points">
                            <mxPoint x="185" y="760"/>
                            <mxPoint x="185" y="945"/>
                        </Array>
                    </mxGeometry>
                </mxCell>
                <mxCell id="bYO1vB-1LLN_wNlQMvkM-79" value="Для повседневного использования" style="edgeLabel;html=1;align=center;verticalAlign=middle;resizable=0;points=[];" parent="bYO1vB-1LLN_wNlQMvkM-76" vertex="1" connectable="0">
                    <mxGeometry x="0.411" relative="1" as="geometry">
                        <mxPoint x="-20" y="-27" as="offset"/>
                    </mxGeometry>
                </mxCell>
                <mxCell id="bYO1vB-1LLN_wNlQMvkM-77" style="edgeStyle=orthogonalEdgeStyle;rounded=0;orthogonalLoop=1;jettySize=auto;html=1;entryX=1;entryY=0.5;entryDx=0;entryDy=0;" parent="1" source="bYO1vB-1LLN_wNlQMvkM-74" target="bYO1vB-1LLN_wNlQMvkM-83" edge="1">
                    <mxGeometry relative="1" as="geometry">
                        <mxPoint x="390" y="890" as="targetPoint"/>
                        <Array as="points">
                            <mxPoint x="355" y="755"/>
                            <mxPoint x="355" y="945"/>
                        </Array>
                    </mxGeometry>
                </mxCell>
                <mxCell id="bYO1vB-1LLN_wNlQMvkM-82" value="Для отдыха" style="edgeLabel;html=1;align=center;verticalAlign=middle;resizable=0;points=[];" parent="bYO1vB-1LLN_wNlQMvkM-77" vertex="1" connectable="0">
                    <mxGeometry x="0.1703" y="3" relative="1" as="geometry">
                        <mxPoint as="offset"/>
                    </mxGeometry>
                </mxCell>
                <mxCell id="bYO1vB-1LLN_wNlQMvkM-78" style="edgeStyle=orthogonalEdgeStyle;rounded=0;orthogonalLoop=1;jettySize=auto;html=1;entryX=0.5;entryY=0;entryDx=0;entryDy=0;" parent="1" source="bYO1vB-1LLN_wNlQMvkM-74" target="bYO1vB-1LLN_wNlQMvkM-83" edge="1">
                    <mxGeometry relative="1" as="geometry">
                        <mxPoint x="270" y="890" as="targetPoint"/>
                    </mxGeometry>
                </mxCell>
                <mxCell id="bYO1vB-1LLN_wNlQMvkM-80" value="На работе" style="edgeLabel;html=1;align=center;verticalAlign=middle;resizable=0;points=[];" parent="bYO1vB-1LLN_wNlQMvkM-78" vertex="1" connectable="0">
                    <mxGeometry x="-0.3461" y="3" relative="1" as="geometry">
                        <mxPoint as="offset"/>
                    </mxGeometry>
                </mxCell>
                <mxCell id="bYO1vB-1LLN_wNlQMvkM-74" value="Когда вы будете использовать духи?" style="rhombus;whiteSpace=wrap;html=1;" parent="1" vertex="1">
                    <mxGeometry x="230" y="710" width="80" height="90" as="geometry"/>
                </mxCell>
                <mxCell id="bYO1vB-1LLN_wNlQMvkM-84" style="edgeStyle=orthogonalEdgeStyle;rounded=0;orthogonalLoop=1;jettySize=auto;html=1;" parent="1" source="bYO1vB-1LLN_wNlQMvkM-83" target="bYO1vB-1LLN_wNlQMvkM-128" edge="1">
                    <mxGeometry relative="1" as="geometry">
                        <mxPoint x="270" y="1070" as="targetPoint"/>
                    </mxGeometry>
                </mxCell>
                <mxCell id="bYO1vB-1LLN_wNlQMvkM-89" value="Зима" style="edgeLabel;html=1;align=center;verticalAlign=middle;resizable=0;points=[];" parent="bYO1vB-1LLN_wNlQMvkM-84" vertex="1" connectable="0">
                    <mxGeometry x="-0.3933" y="3" relative="1" as="geometry">
                        <mxPoint as="offset"/>
                    </mxGeometry>
                </mxCell>
                <mxCell id="bYO1vB-1LLN_wNlQMvkM-85" style="edgeStyle=orthogonalEdgeStyle;rounded=0;orthogonalLoop=1;jettySize=auto;html=1;entryX=0.92;entryY=0.436;entryDx=0;entryDy=0;entryPerimeter=0;" parent="1" source="bYO1vB-1LLN_wNlQMvkM-83" target="bYO1vB-1LLN_wNlQMvkM-128" edge="1">
                    <mxGeometry relative="1" as="geometry">
                        <mxPoint x="370" y="1070" as="targetPoint"/>
                        <Array as="points">
                            <mxPoint x="370" y="945"/>
                            <mxPoint x="370" y="1113"/>
                        </Array>
                    </mxGeometry>
                </mxCell>
                <mxCell id="bYO1vB-1LLN_wNlQMvkM-90" value="Весна/Осень" style="edgeLabel;html=1;align=center;verticalAlign=middle;resizable=0;points=[];" parent="bYO1vB-1LLN_wNlQMvkM-85" vertex="1" connectable="0">
                    <mxGeometry x="0.316" y="-1" relative="1" as="geometry">
                        <mxPoint y="-5" as="offset"/>
                    </mxGeometry>
                </mxCell>
                <mxCell id="bYO1vB-1LLN_wNlQMvkM-86" style="edgeStyle=orthogonalEdgeStyle;rounded=0;orthogonalLoop=1;jettySize=auto;html=1;entryX=0;entryY=0.5;entryDx=0;entryDy=0;" parent="1" source="bYO1vB-1LLN_wNlQMvkM-83" target="bYO1vB-1LLN_wNlQMvkM-128" edge="1">
                    <mxGeometry relative="1" as="geometry">
                        <mxPoint x="180" y="1070" as="targetPoint"/>
                        <Array as="points">
                            <mxPoint x="170" y="945"/>
                            <mxPoint x="170" y="1119"/>
                        </Array>
                    </mxGeometry>
                </mxCell>
                <mxCell id="bYO1vB-1LLN_wNlQMvkM-88" value="Лето" style="edgeLabel;html=1;align=center;verticalAlign=middle;resizable=0;points=[];" parent="bYO1vB-1LLN_wNlQMvkM-86" vertex="1" connectable="0">
                    <mxGeometry x="0.1458" relative="1" as="geometry">
                        <mxPoint as="offset"/>
                    </mxGeometry>
                </mxCell>
                <mxCell id="bYO1vB-1LLN_wNlQMvkM-83" value="В какое время года вы будете использовать&lt;br&gt;&amp;nbsp;духи" style="rhombus;whiteSpace=wrap;html=1;" parent="1" vertex="1">
                    <mxGeometry x="205" y="900" width="130" height="90" as="geometry"/>
                </mxCell>
                <mxCell id="bYO1vB-1LLN_wNlQMvkM-95" value="Деш: Gucci Bloom&lt;br&gt;Дорогой:&amp;nbsp;Chanel Chance" style="ellipse;whiteSpace=wrap;html=1;" parent="1" vertex="1">
                    <mxGeometry x="530" y="755" width="125" height="78" as="geometry"/>
                </mxCell>
                <mxCell id="bYO1vB-1LLN_wNlQMvkM-96" value="Деш:&lt;br&gt;Дорог:&lt;br&gt;" style="ellipse;whiteSpace=wrap;html=1;" parent="1" vertex="1">
                    <mxGeometry x="1174" y="750" width="133" height="83" as="geometry"/>
                </mxCell>
                <mxCell id="bYO1vB-1LLN_wNlQMvkM-97" value=" &quot;Ck One&quot; от Calvin Klein" style="ellipse;whiteSpace=wrap;html=1;" parent="1" vertex="1">
                    <mxGeometry x="901" y="746" width="128" height="83" as="geometry"/>
                </mxCell>
                <mxCell id="bYO1vB-1LLN_wNlQMvkM-122" style="edgeStyle=orthogonalEdgeStyle;rounded=0;orthogonalLoop=1;jettySize=auto;html=1;entryX=0.5;entryY=0;entryDx=0;entryDy=0;" parent="1" source="bYO1vB-1LLN_wNlQMvkM-121" target="bYO1vB-1LLN_wNlQMvkM-15" edge="1">
                    <mxGeometry relative="1" as="geometry"/>
                </mxCell>
                <mxCell id="bYO1vB-1LLN_wNlQMvkM-123" value="Число" style="edgeLabel;html=1;align=center;verticalAlign=middle;resizable=0;points=[];" parent="bYO1vB-1LLN_wNlQMvkM-122" vertex="1" connectable="0">
                    <mxGeometry x="-0.2892" y="6" relative="1" as="geometry">
                        <mxPoint x="-30" y="-4" as="offset"/>
                    </mxGeometry>
                </mxCell>
                <mxCell id="bYO1vB-1LLN_wNlQMvkM-121" value="Бюджет" style="rhombus;whiteSpace=wrap;html=1;" parent="1" vertex="1">
                    <mxGeometry x="373" y="110" width="80" height="80" as="geometry"/>
                </mxCell>
                <mxCell id="bYO1vB-1LLN_wNlQMvkM-129" style="edgeStyle=orthogonalEdgeStyle;rounded=0;orthogonalLoop=1;jettySize=auto;html=1;exitX=1;exitY=0.5;exitDx=0;exitDy=0;entryX=0.895;entryY=0.41;entryDx=0;entryDy=0;entryPerimeter=0;" parent="1" source="bYO1vB-1LLN_wNlQMvkM-128" target="bYO1vB-1LLN_wNlQMvkM-137" edge="1">
                    <mxGeometry relative="1" as="geometry">
                        <mxPoint x="350" y="1310" as="targetPoint"/>
                        <Array as="points">
                            <mxPoint x="350" y="1310"/>
                            <mxPoint x="353" y="1310"/>
                        </Array>
                    </mxGeometry>
                </mxCell>
                <mxCell id="bYO1vB-1LLN_wNlQMvkM-134" value="Крепкий" style="edgeLabel;html=1;align=center;verticalAlign=middle;resizable=0;points=[];" parent="bYO1vB-1LLN_wNlQMvkM-129" vertex="1" connectable="0">
                    <mxGeometry x="-0.0732" y="1" relative="1" as="geometry">
                        <mxPoint as="offset"/>
                    </mxGeometry>
                </mxCell>
                <mxCell id="bYO1vB-1LLN_wNlQMvkM-130" style="edgeStyle=orthogonalEdgeStyle;rounded=0;orthogonalLoop=1;jettySize=auto;html=1;exitX=0;exitY=1;exitDx=0;exitDy=0;entryX=0.153;entryY=0.318;entryDx=0;entryDy=0;entryPerimeter=0;" parent="1" source="bYO1vB-1LLN_wNlQMvkM-128" target="bYO1vB-1LLN_wNlQMvkM-137" edge="1">
                    <mxGeometry relative="1" as="geometry">
                        <mxPoint x="190" y="1310" as="targetPoint"/>
                        <Array as="points">
                            <mxPoint x="190" y="1144"/>
                            <mxPoint x="190" y="1365"/>
                        </Array>
                    </mxGeometry>
                </mxCell>
                <mxCell id="bYO1vB-1LLN_wNlQMvkM-133" value="Сладкий" style="edgeLabel;html=1;align=center;verticalAlign=middle;resizable=0;points=[];" parent="bYO1vB-1LLN_wNlQMvkM-130" vertex="1" connectable="0">
                    <mxGeometry x="0.1694" y="3" relative="1" as="geometry">
                        <mxPoint as="offset"/>
                    </mxGeometry>
                </mxCell>
                <mxCell id="bYO1vB-1LLN_wNlQMvkM-135" style="edgeStyle=orthogonalEdgeStyle;rounded=0;orthogonalLoop=1;jettySize=auto;html=1;entryX=0.5;entryY=0;entryDx=0;entryDy=0;" parent="1" source="bYO1vB-1LLN_wNlQMvkM-128" target="bYO1vB-1LLN_wNlQMvkM-137" edge="1">
                    <mxGeometry relative="1" as="geometry">
                        <mxPoint x="270" y="1310" as="targetPoint"/>
                    </mxGeometry>
                </mxCell>
                <mxCell id="bYO1vB-1LLN_wNlQMvkM-136" value="Душистый" style="edgeLabel;html=1;align=center;verticalAlign=middle;resizable=0;points=[];" parent="bYO1vB-1LLN_wNlQMvkM-135" vertex="1" connectable="0">
                    <mxGeometry x="-0.1454" relative="1" as="geometry">
                        <mxPoint as="offset"/>
                    </mxGeometry>
                </mxCell>
                <mxCell id="bYO1vB-1LLN_wNlQMvkM-128" value="Какой тип ароматов вам нравится больше всего" style="rhombus;whiteSpace=wrap;html=1;" parent="1" vertex="1">
                    <mxGeometry x="190" y="1070" width="160" height="99" as="geometry"/>
                </mxCell>
                <mxCell id="bYO1vB-1LLN_wNlQMvkM-138" style="edgeStyle=orthogonalEdgeStyle;rounded=0;orthogonalLoop=1;jettySize=auto;html=1;entryX=0.5;entryY=0;entryDx=0;entryDy=0;" parent="1" source="bYO1vB-1LLN_wNlQMvkM-137" target="bYO1vB-1LLN_wNlQMvkM-141" edge="1">
                    <mxGeometry relative="1" as="geometry">
                        <mxPoint x="270.5" y="1590" as="targetPoint"/>
                    </mxGeometry>
                </mxCell>
                <mxCell id="bYO1vB-1LLN_wNlQMvkM-137" value="Предпочитаете ли вы легкие и свежие ароматы или насыщенные и тяжелые" style="rhombus;whiteSpace=wrap;html=1;" parent="1" vertex="1">
                    <mxGeometry x="188" y="1320" width="165" height="110" as="geometry"/>
                </mxCell>
                <mxCell id="bYO1vB-1LLN_wNlQMvkM-144" style="edgeStyle=orthogonalEdgeStyle;rounded=0;orthogonalLoop=1;jettySize=auto;html=1;" parent="1" source="bYO1vB-1LLN_wNlQMvkM-141" target="bYO1vB-1LLN_wNlQMvkM-143" edge="1">
                    <mxGeometry relative="1" as="geometry"/>
                </mxCell>
                <mxCell id="bYO1vB-1LLN_wNlQMvkM-141" value="Что важнее для вас: долгое время удержания аромата или интенсивность запаха?" style="rhombus;whiteSpace=wrap;html=1;" parent="1" vertex="1">
                    <mxGeometry x="173.25" y="1460" width="194.5" height="100" as="geometry"/>
                </mxCell>
                <mxCell id="bYO1vB-1LLN_wNlQMvkM-147" style="edgeStyle=orthogonalEdgeStyle;rounded=0;orthogonalLoop=1;jettySize=auto;html=1;" parent="1" source="bYO1vB-1LLN_wNlQMvkM-143" target="bYO1vB-1LLN_wNlQMvkM-145" edge="1">
                    <mxGeometry relative="1" as="geometry"/>
                </mxCell>
                <mxCell id="bYO1vB-1LLN_wNlQMvkM-143" value="Какую атмосферу вы хотите создавать с помощью аромата: романтическую, элегантную, энергичную или провокационную?" style="rhombus;whiteSpace=wrap;html=1;" parent="1" vertex="1">
                    <mxGeometry x="154.31" y="1604" width="232.38" height="106" as="geometry"/>
                </mxCell>
                <mxCell id="bYO1vB-1LLN_wNlQMvkM-150" style="edgeStyle=orthogonalEdgeStyle;rounded=0;orthogonalLoop=1;jettySize=auto;html=1;" parent="1" source="bYO1vB-1LLN_wNlQMvkM-145" target="bYO1vB-1LLN_wNlQMvkM-149" edge="1">
                    <mxGeometry relative="1" as="geometry"/>
                </mxCell>
                <mxCell id="bYO1vB-1LLN_wNlQMvkM-145" value="Предпочитаете ли вы классические ароматы или что-то более современное и эксклюзивное?" style="rhombus;whiteSpace=wrap;html=1;" parent="1" vertex="1">
                    <mxGeometry x="154.94" y="1760" width="231.75" height="80" as="geometry"/>
                </mxCell>
                <mxCell id="bYO1vB-1LLN_wNlQMvkM-151" style="edgeStyle=orthogonalEdgeStyle;rounded=0;orthogonalLoop=1;jettySize=auto;html=1;entryX=0.5;entryY=0;entryDx=0;entryDy=0;" parent="1" source="bYO1vB-1LLN_wNlQMvkM-149" target="bYO1vB-1LLN_wNlQMvkM-152" edge="1">
                    <mxGeometry relative="1" as="geometry">
                        <mxPoint x="270.5" y="2190" as="targetPoint"/>
                    </mxGeometry>
                </mxCell>
                <mxCell id="bYO1vB-1LLN_wNlQMvkM-149" value="Какой тип ароматов вам нравится больше всего: цветочные, фруктовые, древесные или ориентальные?" style="rhombus;whiteSpace=wrap;html=1;" parent="1" vertex="1">
                    <mxGeometry x="147.6" y="1910" width="246.44" height="60" as="geometry"/>
                </mxCell>
                <mxCell id="bYO1vB-1LLN_wNlQMvkM-163" style="edgeStyle=orthogonalEdgeStyle;rounded=0;orthogonalLoop=1;jettySize=auto;html=1;entryX=0.5;entryY=0;entryDx=0;entryDy=0;" parent="1" source="bYO1vB-1LLN_wNlQMvkM-152" target="bYO1vB-1LLN_wNlQMvkM-164" edge="1">
                    <mxGeometry relative="1" as="geometry">
                        <mxPoint x="270.82000000000016" y="2229.9999999999995" as="targetPoint"/>
                    </mxGeometry>
                </mxCell>
                <mxCell id="bYO1vB-1LLN_wNlQMvkM-152" value="Предпочитаете ли вы потрясающий и привлекательный аромат или что-то более непритязательное и ненавязчивое?" style="rhombus;whiteSpace=wrap;html=1;" parent="1" vertex="1">
                    <mxGeometry x="144.13" y="2040" width="253.38" height="100" as="geometry"/>
                </mxCell>
                <mxCell id="bYO1vB-1LLN_wNlQMvkM-154" style="edgeStyle=orthogonalEdgeStyle;rounded=0;orthogonalLoop=1;jettySize=auto;html=1;" parent="1" source="bYO1vB-1LLN_wNlQMvkM-153" target="bYO1vB-1LLN_wNlQMvkM-21" edge="1">
                    <mxGeometry relative="1" as="geometry"/>
                </mxCell>
                <mxCell id="bYO1vB-1LLN_wNlQMvkM-153" value="Ваш возраст?" style="rhombus;whiteSpace=wrap;html=1;" parent="1" vertex="1">
                    <mxGeometry x="230" y="340" width="94.5" height="70" as="geometry"/>
                </mxCell>
                <mxCell id="bYO1vB-1LLN_wNlQMvkM-156" style="edgeStyle=orthogonalEdgeStyle;rounded=0;orthogonalLoop=1;jettySize=auto;html=1;entryX=0.5;entryY=0;entryDx=0;entryDy=0;" parent="1" source="bYO1vB-1LLN_wNlQMvkM-155" target="bYO1vB-1LLN_wNlQMvkM-169" edge="1">
                    <mxGeometry relative="1" as="geometry"/>
                </mxCell>
                <mxCell id="bYO1vB-1LLN_wNlQMvkM-155" value="Какую ассоциацию или эмоцию вы хотите вызвать у человека, которому предназначается подарок?" style="rhombus;whiteSpace=wrap;html=1;" parent="1" vertex="1">
                    <mxGeometry x="870" y="230" width="190" height="80" as="geometry"/>
                </mxCell>
                <mxCell id="bYO1vB-1LLN_wNlQMvkM-166" style="edgeStyle=orthogonalEdgeStyle;rounded=0;orthogonalLoop=1;jettySize=auto;html=1;" parent="1" source="bYO1vB-1LLN_wNlQMvkM-164" target="bYO1vB-1LLN_wNlQMvkM-167" edge="1">
                    <mxGeometry relative="1" as="geometry">
                        <mxPoint x="270.5" y="2429.9999999999995" as="targetPoint"/>
                    </mxGeometry>
                </mxCell>
                <mxCell id="bYO1vB-1LLN_wNlQMvkM-164" value="Что вы думаете о сезонных ограничениях ароматов?" style="rhombus;whiteSpace=wrap;html=1;" parent="1" vertex="1">
                    <mxGeometry x="120.5" y="2240" width="300" height="110" as="geometry"/>
                </mxCell>
                <mxCell id="29" value="" style="edgeStyle=none;html=1;" edge="1" parent="1" source="bYO1vB-1LLN_wNlQMvkM-167" target="28">
                    <mxGeometry relative="1" as="geometry"/>
                </mxCell>
                <mxCell id="bYO1vB-1LLN_wNlQMvkM-167" value="Какую стойкость и проекцию аромата вы ожидаете от духов?" style="rhombus;whiteSpace=wrap;html=1;" parent="1" vertex="1">
                    <mxGeometry x="115.25" y="2400" width="309.5" height="100" as="geometry"/>
                </mxCell>
                <mxCell id="bYO1vB-1LLN_wNlQMvkM-170" style="edgeStyle=orthogonalEdgeStyle;rounded=0;orthogonalLoop=1;jettySize=auto;html=1;entryX=0.5;entryY=0;entryDx=0;entryDy=0;" parent="1" source="bYO1vB-1LLN_wNlQMvkM-169" target="bYO1vB-1LLN_wNlQMvkM-22" edge="1">
                    <mxGeometry relative="1" as="geometry"/>
                </mxCell>
                <mxCell id="bYO1vB-1LLN_wNlQMvkM-169" value="Какого возраста адресат подарка? Духи для молодежи или для более зрелых людей?" style="rhombus;whiteSpace=wrap;html=1;" parent="1" vertex="1">
                    <mxGeometry x="1047" y="295" width="253" height="115" as="geometry"/>
                </mxCell>
                <mxCell id="bYO1vB-1LLN_wNlQMvkM-176" style="edgeStyle=orthogonalEdgeStyle;rounded=0;orthogonalLoop=1;jettySize=auto;html=1;entryX=0;entryY=0;entryDx=0;entryDy=0;" parent="1" source="bYO1vB-1LLN_wNlQMvkM-172" target="bYO1vB-1LLN_wNlQMvkM-15" edge="1">
                    <mxGeometry relative="1" as="geometry">
                        <Array as="points">
                            <mxPoint x="219" y="240"/>
                            <mxPoint x="219" y="238"/>
                        </Array>
                    </mxGeometry>
                </mxCell>
                <mxCell id="bYO1vB-1LLN_wNlQMvkM-172" value="Вы уверены?" style="rhombus;whiteSpace=wrap;html=1;" parent="1" vertex="1">
                    <mxGeometry x="-20" y="212.5" width="100" height="85" as="geometry"/>
                </mxCell>
                <mxCell id="3" value="" style="ellipse;whiteSpace=wrap;html=1;" parent="1" vertex="1">
                    <mxGeometry x="680" y="680" width="120" height="80" as="geometry"/>
                </mxCell>
                <mxCell id="6" value="0" style="text;html=1;align=center;verticalAlign=middle;resizable=0;points=[];autosize=1;strokeColor=none;fillColor=none;" vertex="1" parent="1">
                    <mxGeometry x="495" y="25" width="30" height="30" as="geometry"/>
                </mxCell>
                <mxCell id="7" value="1" style="text;html=1;align=center;verticalAlign=middle;resizable=0;points=[];autosize=1;strokeColor=none;fillColor=none;" vertex="1" parent="1">
                    <mxGeometry x="475" y="125" width="30" height="30" as="geometry"/>
                </mxCell>
                <mxCell id="8" value="2" style="text;html=1;align=center;verticalAlign=middle;resizable=0;points=[];autosize=1;strokeColor=none;fillColor=none;" vertex="1" parent="1">
                    <mxGeometry x="465" y="215" width="30" height="30" as="geometry"/>
                </mxCell>
                <mxCell id="9" value="3" style="text;html=1;align=center;verticalAlign=middle;resizable=0;points=[];autosize=1;strokeColor=none;fillColor=none;" vertex="1" parent="1">
                    <mxGeometry x="975" y="205" width="30" height="30" as="geometry"/>
                </mxCell>
                <mxCell id="10" value="4" style="text;html=1;align=center;verticalAlign=middle;resizable=0;points=[];autosize=1;strokeColor=none;fillColor=none;" vertex="1" parent="1">
                    <mxGeometry x="1215" y="275" width="30" height="30" as="geometry"/>
                </mxCell>
                <mxCell id="11" value="5" style="text;html=1;align=center;verticalAlign=middle;resizable=0;points=[];autosize=1;strokeColor=none;fillColor=none;" vertex="1" parent="1">
                    <mxGeometry x="885" y="375" width="30" height="30" as="geometry"/>
                </mxCell>
                <mxCell id="12" value="6" style="text;html=1;align=center;verticalAlign=middle;resizable=0;points=[];autosize=1;strokeColor=none;fillColor=none;" vertex="1" parent="1">
                    <mxGeometry x="205" y="335" width="30" height="30" as="geometry"/>
                </mxCell>
                <mxCell id="13" value="7" style="text;html=1;align=center;verticalAlign=middle;resizable=0;points=[];autosize=1;strokeColor=none;fillColor=none;" vertex="1" parent="1">
                    <mxGeometry x="205" y="435" width="30" height="30" as="geometry"/>
                </mxCell>
                <mxCell id="14" value="8" style="text;html=1;align=center;verticalAlign=middle;resizable=0;points=[];autosize=1;strokeColor=none;fillColor=none;" vertex="1" parent="1">
                    <mxGeometry x="195" y="575" width="30" height="30" as="geometry"/>
                </mxCell>
                <mxCell id="15" value="9" style="text;html=1;align=center;verticalAlign=middle;resizable=0;points=[];autosize=1;strokeColor=none;fillColor=none;" vertex="1" parent="1">
                    <mxGeometry x="165" y="725" width="30" height="30" as="geometry"/>
                </mxCell>
                <mxCell id="16" value="10" style="text;html=1;align=center;verticalAlign=middle;resizable=0;points=[];autosize=1;strokeColor=none;fillColor=none;" vertex="1" parent="1">
                    <mxGeometry x="210" y="890" width="40" height="30" as="geometry"/>
                </mxCell>
                <mxCell id="19" value="11" style="text;html=1;align=center;verticalAlign=middle;resizable=0;points=[];autosize=1;strokeColor=none;fillColor=none;" vertex="1" parent="1">
                    <mxGeometry x="297.5" y="1070" width="40" height="30" as="geometry"/>
                </mxCell>
                <mxCell id="20" value="12" style="text;html=1;align=center;verticalAlign=middle;resizable=0;points=[];autosize=1;strokeColor=none;fillColor=none;" vertex="1" parent="1">
                    <mxGeometry x="290" y="1315" width="40" height="30" as="geometry"/>
                </mxCell>
                <mxCell id="21" value="13" style="text;html=1;align=center;verticalAlign=middle;resizable=0;points=[];autosize=1;strokeColor=none;fillColor=none;" vertex="1" parent="1">
                    <mxGeometry x="338" y="1465" width="40" height="30" as="geometry"/>
                </mxCell>
                <mxCell id="22" value="14" style="text;html=1;align=center;verticalAlign=middle;resizable=0;points=[];autosize=1;strokeColor=none;fillColor=none;" vertex="1" parent="1">
                    <mxGeometry x="318" y="1600" width="40" height="30" as="geometry"/>
                </mxCell>
                <mxCell id="23" value="15" style="text;html=1;align=center;verticalAlign=middle;resizable=0;points=[];autosize=1;strokeColor=none;fillColor=none;" vertex="1" parent="1">
                    <mxGeometry x="318" y="1750" width="40" height="30" as="geometry"/>
                </mxCell>
                <mxCell id="24" value="16" style="text;html=1;align=center;verticalAlign=middle;resizable=0;points=[];autosize=1;strokeColor=none;fillColor=none;" vertex="1" parent="1">
                    <mxGeometry x="310" y="1890" width="40" height="30" as="geometry"/>
                </mxCell>
                <mxCell id="25" value="17" style="text;html=1;align=center;verticalAlign=middle;resizable=0;points=[];autosize=1;strokeColor=none;fillColor=none;" vertex="1" parent="1">
                    <mxGeometry x="314" y="2030" width="40" height="30" as="geometry"/>
                </mxCell>
                <mxCell id="26" value="18" style="text;html=1;align=center;verticalAlign=middle;resizable=0;points=[];autosize=1;strokeColor=none;fillColor=none;" vertex="1" parent="1">
                    <mxGeometry x="324.5" y="2230" width="40" height="30" as="geometry"/>
                </mxCell>
                <mxCell id="27" value="19" style="text;html=1;align=center;verticalAlign=middle;resizable=0;points=[];autosize=1;strokeColor=none;fillColor=none;" vertex="1" parent="1">
                    <mxGeometry x="330" y="2390" width="40" height="30" as="geometry"/>
                </mxCell>
                <mxCell id="28" value="Какой объем духов вас интересует?" style="rhombus;whiteSpace=wrap;html=1;" vertex="1" parent="1">
                    <mxGeometry x="110" y="2590" width="320" height="80" as="geometry"/>
                </mxCell>
                <mxCell id="30" value="20" style="text;html=1;align=center;verticalAlign=middle;resizable=0;points=[];autosize=1;strokeColor=none;fillColor=none;" vertex="1" parent="1">
                    <mxGeometry x="314" y="2570" width="40" height="30" as="geometry"/>
                </mxCell>
            </root>
        </mxGraphModel>
    </diagram>
</mxfile>